<svg xmlns="http://www.w3.org/2000/svg" version="1.1" xmlns:xlink="http://www.w3.org/1999/xlink" xmlns:svgjs="http://svgjs.dev/svgjs" width="1440" height="560" preserveAspectRatio="none" viewBox="0 0 1440 560"><g mask="url(&quot;#SvgjsMask1021&quot;)" fill="none"><rect width="1440" height="560" x="0" y="0" fill="rgba(31, 34, 43, 1)"></rect><path d="M299.97 667.96C460.69 665.38 590.4 471.14 910.57 466.58 1230.74 462.02 1361.69 283.79 1521.17 281.78" stroke="rgba(243, 226, 119, 1)" stroke-width="2"></path><path d="M176.69 571.89C354.08 567.95 494.43 329.31 842.07 324.9 1189.71 320.49 1336.55 169.15 1507.45 168.1" stroke="rgba(243, 226, 119, 1)" stroke-width="2"></path><path d="M427.73 608.58C581.01 544.34 588.96 85.99 814.68 68 1040.39 50.01 1008.15 138 1201.62 138 1395.1 138 1490.26 68.28 1588.57 68" stroke="rgba(243, 226, 119, 1)" stroke-width="2"></path><path d="M797.33 609.27C888.03 593.65 865.01 370.05 1076.87 369.73 1288.72 369.41 1493.11 486.7 1635.94 487.33" stroke="rgba(243, 226, 119, 1)" stroke-width="2"></path><path d="M322.03 568.48C496.64 561.4 635.72 274.36 955.95 273.89 1276.18 273.42 1428.94 385.46 1589.87 385.89" stroke="rgba(243, 226, 119, 1)" stroke-width="2"></path></g><defs><mask id="SvgjsMask1021"><rect width="1440" height="560" fill="#ffffff"></rect></mask></defs></svg>