<svg id="visual" viewBox="0 0 900 600" width="900" height="600" xmlns="http://www.w3.org/2000/svg" xmlns:xlink="http://www.w3.org/1999/xlink" version="1.1"><rect x="0" y="0" width="900" height="600" fill="#1f222b"></rect><path d="M0 259L21.5 267.2C43 275.3 86 291.7 128.8 307C171.7 322.3 214.3 336.7 257.2 352C300 367.3 343 383.7 385.8 397.5C428.7 411.3 471.3 422.7 514.2 431.2C557 439.7 600 445.3 642.8 414.3C685.7 383.3 728.3 315.7 771.2 285.2C814 254.7 857 261.3 878.5 264.7L900 268L900 601L878.5 601C857 601 814 601 771.2 601C728.3 601 685.7 601 642.8 601C600 601 557 601 514.2 601C471.3 601 428.7 601 385.8 601C343 601 300 601 257.2 601C214.3 601 171.7 601 128.8 601C86 601 43 601 21.5 601L0 601Z" fill="#c29029" stroke-linecap="round" stroke-linejoin="miter"></path></svg>